<svg xmlns="http://www.w3.org/2000/svg" width="255" height="38.978" viewBox="0 0 255 38.978">
  <g id="Logo_original" transform="translate(-573.033 -181.455)">
    <g id="Grupo_4" data-name="Grupo 4" transform="translate(615.554 181.455)">
      <path id="Caminho_1" data-name="Caminho 1" d="M617.449,181.691v25.717c-.019,7.149-5.116,11.67-12.589,11.67-6.68,0-11.938-3.513-11.9-10.878h7.762c.053,2.934,1.818,4.627,4.537,4.627,2.881,0,4.465-1.872,4.484-5.419V181.691Z" transform="translate(-592.957 -181.187)" fill="#fff"/>
      <path id="Caminho_2" data-name="Caminho 2" d="M625.116,186.011h7.672v27.661h-7.365v-5.024h-.288c-1.242,3.242-4.232,5.385-8.391,5.385-5.566,0-9.348-3.944-9.365-10.408V186.011h7.672v16.245c.017,3.259,1.889,5.293,4.789,5.293,2.755,0,5.295-1.944,5.276-5.653Z" transform="translate(-576.6 -176.288)" fill="#fff"/>
      <path id="Caminho_3" data-name="Caminho 3" d="M638.8,194.524c-.378-1.784-1.963-3.242-4.629-3.242-2.377,0-4.249,1.08-4.232,2.738-.017,1.332.937,2.215,3.513,2.772l5,1.007c5.367,1.1,7.98,3.5,8,7.493-.017,5.455-5.15,9.111-12.318,9.111-7.329,0-11.832-3.259-12.551-8.554l7.546-.395c.467,2.252,2.286,3.421,5.024,3.421,2.683,0,4.465-1.169,4.5-2.809-.036-1.387-1.133-2.269-3.547-2.755l-4.791-.956c-5.4-1.08-8.014-3.763-7.995-7.9-.019-5.329,4.646-8.609,11.723-8.609,6.987,0,11.094,3.154,11.776,8.249Z" transform="translate(-560.492 -176.479)" fill="#fff"/>
      <path id="Caminho_4" data-name="Caminho 4" d="M660.57,194.87c-.593-4.053-3.673-6.518-7.941-6.518-5.709,0-9.454,4.375-9.454,12.047,0,7.888,3.8,12.047,9.4,12.047,4.162,0,7.258-2.269,8-6.213l7.888.036c-.847,6.789-6.554,13.074-16.01,13.074-9.868,0-17.178-6.917-17.178-18.945,0-12.067,7.435-18.945,17.178-18.945,8.537,0,14.984,4.9,16.01,13.415Z" transform="translate(-544.967 -181.455)" fill="#fff"/>
      <path id="Caminho_5" data-name="Caminho 5" d="M652.772,206.138c0-6.176,4.915-8.014,10.391-8.517,4.808-.467,6.7-.7,6.7-2.484v-.109c0-2.269-1.494-3.583-4.106-3.583-2.755,0-4.392,1.351-4.915,3.188l-7.094-.576c1.061-5.043,5.419-8.214,12.047-8.214,6.157,0,11.74,2.774,11.74,9.367v18.655h-7.275v-3.835h-.216c-1.351,2.576-4,4.358-8.086,4.358C656.68,214.386,652.772,211.614,652.772,206.138Zm17.144-2.16v-2.934c-.918.61-3.656,1.007-5.331,1.242-2.7.378-4.484,1.441-4.484,3.6,0,2.106,1.692,3.206,4.051,3.206C667.521,209.091,669.916,206.876,669.916,203.978Z" transform="translate(-525.117 -176.479)" fill="#fff"/>
      <path id="Caminho_6" data-name="Caminho 6" d="M683.812,194.524c-.378-1.784-1.963-3.242-4.629-3.242-2.377,0-4.249,1.08-4.232,2.738-.017,1.332.937,2.215,3.513,2.772l5,1.007c5.368,1.1,7.98,3.5,8,7.493-.017,5.455-5.15,9.111-12.316,9.111-7.331,0-11.832-3.259-12.553-8.554l7.546-.395c.467,2.252,2.286,3.421,5.024,3.421,2.683,0,4.467-1.169,4.5-2.809-.034-1.387-1.133-2.269-3.547-2.755l-4.791-.956c-5.4-1.08-8.012-3.763-7.995-7.9-.017-5.329,4.646-8.609,11.723-8.609,6.987,0,11.093,3.154,11.779,8.249Z" transform="translate(-509.44 -176.479)" fill="#fff"/>
      <path id="Caminho_7" data-name="Caminho 7" d="M688.191,218.571h-7.672v-36.88h7.455v14.1h.324c1.261-3.259,4.07-5.242,8.266-5.242,5.762,0,9.58,3.927,9.563,10.41v17.611h-7.672V202.328c.019-3.4-1.818-5.4-4.934-5.4-3.133,0-5.312,2.089-5.329,5.653Z" transform="translate(-493.648 -181.187)" fill="#fff"/>
    </g>
    <g id="Grupo_7" data-name="Grupo 7" transform="translate(573.033 184.531)">
      <path id="Caminho_8" data-name="Caminho 8" d="M605.132,202.865l.837-.455,1.323,2.269c1.364-4.076.506-11.563-5.254-16.531a16.834,16.834,0,1,0-9.083,29.434v1c-4.249.888-11.712-.811-16.326-6.938a17.957,17.957,0,0,1,19.713-27.921,17.6,17.6,0,0,1,10.169,8.061,17.96,17.96,0,0,1,2.079,12.971l2.017-1.534.636.717c-1.108.869-2.179,1.716-3.257,2.557-.376.292-.681.222-.916-.2C606.443,205.172,605.809,204.058,605.132,202.865Z" transform="translate(-573.032 -182.896)" fill="#2cbd62"/>
      <g id="Grupo_5" data-name="Grupo 5" transform="translate(24.11 24.702)">
        <path id="Caminho_9" data-name="Caminho 9" d="M586.69,202.88a2.242,2.242,0,0,1-2.36-2.019h.92a1.417,1.417,0,0,0,1.44,1.208v-2.723l-.288-.081c-1.153-.333-1.872-.922-1.872-1.914a2.156,2.156,0,0,1,2.16-2.04v-.839h.589v.828a2.177,2.177,0,0,1,2.26,1.936h-.864a1.392,1.392,0,0,0-1.4-1.142v2.559l.288.079c.762.2,2.072.649,2.072,2.03,0,1.12-.849,2.015-2.36,2.119v.8h-.589Zm0-6.776c-.792.1-1.3.58-1.3,1.2,0,.728.749,1.031,1.3,1.187Zm2.087,4.642c0-.734-.691-1.007-1.468-1.223l-.03-.009v2.555C588.15,201.973,588.778,201.469,588.778,200.745Z" transform="translate(-584.33 -194.471)" fill="#2cbd62"/>
      </g>
      <g id="Grupo_6" data-name="Grupo 6" transform="translate(15.662 7.214)">
        <rect id="Ret창ngulo_470" data-name="Ret창ngulo 470" width="1.008" height="13.061" transform="translate(2.254)" fill="#2cbd62"/>
        <rect id="Ret창ngulo_471" data-name="Ret창ngulo 471" width="1.008" height="9.731" transform="matrix(0.651, 0.759, -0.759, 0.651, 7.387, 5.714)" fill="#2cbd62"/>
      </g>
    </g>
  </g>
</svg>
